<!--?xml version="1.0" encoding="utf-8"?-->
<!-- Generator: Adobe Illustrator 19.0.0, SVG Export Plug-In . SVG Version: 6.00 Build 0)  -->
<svg version="1.1" id="レイヤー_1" xmlns="http://www.w3.org/2000/svg" xmlns:xlink="http://www.w3.org/1999/xlink" x="0px" y="0px" viewBox="0 0 250 300" xml:space="preserve">
<style type="text/css">
	.st0{fill:none;stroke:#FFFFFF;stroke-width:2.4569;stroke-miterlimit:10;}
</style>
<g id="XMLID_317_">
	<path id="XMLID_379_" class="st0 QMaIvUNg_0" d="M150.9,69.8L137.7,69.8L124.5,69.8L111.3,69.8L98.1,69.8L98.1,53.1L98.1,36.5
		98.1,19.8L98.1,3.1L111.3,3.1L124.5,3.1L137.7,3.1L150.9,3.1L150.9,19.8L150.9,36.5L150.9,53.1Z"></path>
	<path id="XMLID_325_" class="st0 QMaIvUNg_1" d="M150.9,69.8h-13.2h-13.2h-13.2H98.1V53.1V36.5V19.8V3.1h13.2c1.2,2.7,2.6,4.8,4,6.5
		c11.2,13.4,32.4,10.6,35.6,10.2c0,5.6,0,11.1,0,16.7v16.7V69.8z"></path>
	<path id="XMLID_323_" class="st0 QMaIvUNg_2" d="M128.1,33.2A3.9,3.9 0,1,1 135.9,33.2A3.9,3.9 0,1,1 128.1,33.2"></path>
	<path id="XMLID_322_" class="st0 QMaIvUNg_3" d="M109.5,33.2A3.9,3.9 0,1,1 117.30000000000001,33.2A3.9,3.9 0,1,1 109.5,33.2"></path>
	<path id="XMLID_321_" class="st0 QMaIvUNg_4" d="M92.3,261.6h-6.4c-1.5,0-2.7,1.2-2.7,2.7v6.9c0,1.5,1.2,2.7,2.7,2.7h6.4
		c1.5,0,2.7-1.2,2.7-2.7v-6.9C95,262.8,93.8,261.6,92.3,261.6z"></path>
	<path id="XMLID_319_" class="st0 QMaIvUNg_5" d="M216.9,185.3h-6.4c-1.5,0-2.7,1.2-2.7,2.7v6.9c0,1.5,1.2,2.7,2.7,2.7h6.4
		c1.5,0,2.7-1.2,2.7-2.7V188C219.6,186.5,218.4,185.3,216.9,185.3z"></path>
	<path id="XMLID_383_" class="st0 QMaIvUNg_6" d="M11.4,249.9H5c-1.5,0-2.7,1.2-2.7,2.7v6.9c0,1.5,1.2,2.7,2.7,2.7h6.4c1.5,0,2.7-1.2,2.7-2.7
		v-6.9C14.1,251.1,12.9,249.9,11.4,249.9z"></path>
	<path id="XMLID_382_" class="st0 QMaIvUNg_7" d="M245,240.3h-6.4c-1.5,0-2.7,1.2-2.7,2.7v6.9c0,1.5,1.2,2.7,2.7,2.7h6.4c1.5,0,2.7-1.2,2.7-2.7
		V243C247.7,241.5,246.5,240.3,245,240.3z"></path>
	<path id="XMLID_384_" class="st0 QMaIvUNg_8" d="M168.5,285.5h-6.4c-1.5,0-2.7,1.2-2.7,2.7v6.9c0,1.5,1.2,2.7,2.7,2.7h6.4
		c1.5,0,2.7-1.2,2.7-2.7v-6.9C171.2,286.7,170,285.5,168.5,285.5z"></path>
	<path id="XMLID_381_" class="st0 QMaIvUNg_9" d="M42,215.1h-6.4c-1.5,0-2.7,1.2-2.7,2.7v6.9c0,1.5,1.2,2.7,2.7,2.7H42c1.5,0,2.7-1.2,2.7-2.7
		v-6.9C44.7,216.3,43.5,215.1,42,215.1z"></path>
	<path id="XMLID_320_" class="st0 QMaIvUNg_10" d="M139.3,249.5h-6.4c-1.5,0-2.7,1.2-2.7,2.7v8.6c0,1.5,1.2,2.7,2.7,2.7h6.4
		c1.5,0,2.7-1.2,2.7-2.7v-8.6C142,250.7,140.8,249.5,139.3,249.5z"></path>
	<path id="XMLID_318_" class="st0 QMaIvUNg_11" d="M177.4,204.3v-21.7v-33.4v-33.4V82.4h-26.4h-26.4H98H71.6v33.4v33.4v33.4v21.7h0v22.1
		c0,1.5,1.2,2.7,2.7,2.7h6.4c1.5,0,2.7,1.2,2.7,2.7v14.4c0,1.5,1.2,2.7,2.7,2.7h6.4c1.5,0,2.7-1.2,2.7-2.7s1.2-2.7,2.7-2.7h6.4
		c1.5,0,2.7-1.2,2.7-2.7v-15.1c0-1.5,1.2-2.7,2.7-2.7h6.4c1.5,0,2.7,1.2,2.7,2.7v0.7c0,1.5,1.2,2.7,2.7,2.7h6.4
		c1.5,0,2.7,1.2,2.7,2.7v5.1c0,1.5,1.2,2.7,2.7,2.7h6.4c1.5,0,2.7-1.2,2.7-2.7v-5.1c0-1.5,1.2-2.7,2.7-2.7h6.4
		c1.5,0,2.7,1.2,2.7,2.7v17.2c0,1.5,1.2,2.7,2.7,2.7h6.4c1.5,0,2.7-1.2,2.7-2.7v-25.5c0-1.5,1.2-2.7,2.7-2.7h6.5
		c1.5,0,2.7-1.2,2.7-2.7V212L177.4,204.3L177.4,204.3z"></path>
</g>
<style>.QMaIvUNg_0{stroke-dasharray:239 241;stroke-dashoffset:240;animation:QMaIvUNg_draw_0 7200ms ease 0ms infinite,QMaIvUNg_fade 7200ms linear 0ms infinite;}.QMaIvUNg_1{stroke-dasharray:229 231;stroke-dashoffset:230;animation:QMaIvUNg_draw_1 7200ms ease 0ms infinite,QMaIvUNg_fade 7200ms linear 0ms infinite;}.QMaIvUNg_2{stroke-dasharray:25 27;stroke-dashoffset:26;animation:QMaIvUNg_draw_2 7200ms ease 0ms infinite,QMaIvUNg_fade 7200ms linear 0ms infinite;}.QMaIvUNg_3{stroke-dasharray:25 27;stroke-dashoffset:26;animation:QMaIvUNg_draw_3 7200ms ease 0ms infinite,QMaIvUNg_fade 7200ms linear 0ms infinite;}.QMaIvUNg_4{stroke-dasharray:44 46;stroke-dashoffset:45;animation:QMaIvUNg_draw_4 7200ms ease 0ms infinite,QMaIvUNg_fade 7200ms linear 0ms infinite;}.QMaIvUNg_5{stroke-dasharray:44 46;stroke-dashoffset:45;animation:QMaIvUNg_draw_5 7200ms ease 0ms infinite,QMaIvUNg_fade 7200ms linear 0ms infinite;}.QMaIvUNg_6{stroke-dasharray:44 46;stroke-dashoffset:45;animation:QMaIvUNg_draw_6 7200ms ease 0ms infinite,QMaIvUNg_fade 7200ms linear 0ms infinite;}.QMaIvUNg_7{stroke-dasharray:44 46;stroke-dashoffset:45;animation:QMaIvUNg_draw_7 7200ms ease 0ms infinite,QMaIvUNg_fade 7200ms linear 0ms infinite;}.QMaIvUNg_8{stroke-dasharray:44 46;stroke-dashoffset:45;animation:QMaIvUNg_draw_8 7200ms ease 0ms infinite,QMaIvUNg_fade 7200ms linear 0ms infinite;}.QMaIvUNg_9{stroke-dasharray:44 46;stroke-dashoffset:45;animation:QMaIvUNg_draw_9 7200ms ease 0ms infinite,QMaIvUNg_fade 7200ms linear 0ms infinite;}.QMaIvUNg_10{stroke-dasharray:47 49;stroke-dashoffset:48;animation:QMaIvUNg_draw_10 7200ms ease 0ms infinite,QMaIvUNg_fade 7200ms linear 0ms infinite;}.QMaIvUNg_11{stroke-dasharray:603 605;stroke-dashoffset:604;animation:QMaIvUNg_draw_11 7200ms ease 0ms infinite,QMaIvUNg_fade 7200ms linear 0ms infinite;}@keyframes QMaIvUNg_draw{100%{stroke-dashoffset:0;}}@keyframes QMaIvUNg_fade{0%{stroke-opacity:1;}94.44444444444444%{stroke-opacity:1;}100%{stroke-opacity:0;}}@keyframes QMaIvUNg_draw_0{11.11111111111111%{stroke-dashoffset: 240}38.88888888888889%{ stroke-dashoffset: 0;}100%{ stroke-dashoffset: 0;}}@keyframes QMaIvUNg_draw_1{12.373737373737374%{stroke-dashoffset: 230}40.151515151515156%{ stroke-dashoffset: 0;}100%{ stroke-dashoffset: 0;}}@keyframes QMaIvUNg_draw_2{13.636363636363635%{stroke-dashoffset: 26}41.41414141414141%{ stroke-dashoffset: 0;}100%{ stroke-dashoffset: 0;}}@keyframes QMaIvUNg_draw_3{14.8989898989899%{stroke-dashoffset: 26}42.67676767676768%{ stroke-dashoffset: 0;}100%{ stroke-dashoffset: 0;}}@keyframes QMaIvUNg_draw_4{16.16161616161616%{stroke-dashoffset: 45}43.93939393939394%{ stroke-dashoffset: 0;}100%{ stroke-dashoffset: 0;}}@keyframes QMaIvUNg_draw_5{17.424242424242422%{stroke-dashoffset: 45}45.2020202020202%{ stroke-dashoffset: 0;}100%{ stroke-dashoffset: 0;}}@keyframes QMaIvUNg_draw_6{18.68686868686869%{stroke-dashoffset: 45}46.464646464646464%{ stroke-dashoffset: 0;}100%{ stroke-dashoffset: 0;}}@keyframes QMaIvUNg_draw_7{19.94949494949495%{stroke-dashoffset: 45}47.72727272727273%{ stroke-dashoffset: 0;}100%{ stroke-dashoffset: 0;}}@keyframes QMaIvUNg_draw_8{21.21212121212121%{stroke-dashoffset: 45}48.98989898989899%{ stroke-dashoffset: 0;}100%{ stroke-dashoffset: 0;}}@keyframes QMaIvUNg_draw_9{22.474747474747474%{stroke-dashoffset: 45}50.252525252525245%{ stroke-dashoffset: 0;}100%{ stroke-dashoffset: 0;}}@keyframes QMaIvUNg_draw_10{23.737373737373737%{stroke-dashoffset: 48}51.515151515151516%{ stroke-dashoffset: 0;}100%{ stroke-dashoffset: 0;}}@keyframes QMaIvUNg_draw_11{25%{stroke-dashoffset: 604}52.77777777777778%{ stroke-dashoffset: 0;}100%{ stroke-dashoffset: 0;}}</style></svg>
