<?xml version="1.0" encoding="utf-8"?>
<!-- Generator: Adobe Illustrator 19.0.0, SVG Export Plug-In . SVG Version: 6.00 Build 0)  -->
<svg version="1.1" id="レイヤー_1" xmlns="http://www.w3.org/2000/svg" xmlns:xlink="http://www.w3.org/1999/xlink" x="0px"
	 y="0px" viewBox="0 0 250 300" style="enable-background:new 0 0 250 300;" xml:space="preserve">
<style type="text/css">
	.st0{fill:none;stroke:#FFFFFF;stroke-width:2.4569;stroke-miterlimit:10;}
</style>
<g id="XMLID_317_">
	<polygon id="XMLID_379_" class="st0" points="150.9,69.8 137.7,69.8 124.5,69.8 111.3,69.8 98.1,69.8 98.1,53.1 98.1,36.5
		98.1,19.8 98.1,3.1 111.3,3.1 124.5,3.1 137.7,3.1 150.9,3.1 150.9,19.8 150.9,36.5 150.9,53.1 	"/>
	<path id="XMLID_325_" class="st0" d="M150.9,69.8h-13.2h-13.2h-13.2H98.1V53.1V36.5V19.8V3.1h13.2c1.2,2.7,2.6,4.8,4,6.5
		c11.2,13.4,32.4,10.6,35.6,10.2c0,5.6,0,11.1,0,16.7v16.7V69.8z"/>
	<circle id="XMLID_323_" class="st0" cx="132" cy="33.2" r="3.9"/>
	<circle id="XMLID_322_" class="st0" cx="113.4" cy="33.2" r="3.9"/>
	<path id="XMLID_321_" class="st0" d="M92.3,261.6h-6.4c-1.5,0-2.7,1.2-2.7,2.7v6.9c0,1.5,1.2,2.7,2.7,2.7h6.4
		c1.5,0,2.7-1.2,2.7-2.7v-6.9C95,262.8,93.8,261.6,92.3,261.6z"/>
	<path id="XMLID_319_" class="st0" d="M216.9,185.3h-6.4c-1.5,0-2.7,1.2-2.7,2.7v6.9c0,1.5,1.2,2.7,2.7,2.7h6.4
		c1.5,0,2.7-1.2,2.7-2.7V188C219.6,186.5,218.4,185.3,216.9,185.3z"/>
	<path id="XMLID_383_" class="st0" d="M11.4,249.9H5c-1.5,0-2.7,1.2-2.7,2.7v6.9c0,1.5,1.2,2.7,2.7,2.7h6.4c1.5,0,2.7-1.2,2.7-2.7
		v-6.9C14.1,251.1,12.9,249.9,11.4,249.9z"/>
	<path id="XMLID_382_" class="st0" d="M245,240.3h-6.4c-1.5,0-2.7,1.2-2.7,2.7v6.9c0,1.5,1.2,2.7,2.7,2.7h6.4c1.5,0,2.7-1.2,2.7-2.7
		V243C247.7,241.5,246.5,240.3,245,240.3z"/>
	<path id="XMLID_384_" class="st0" d="M168.5,285.5h-6.4c-1.5,0-2.7,1.2-2.7,2.7v6.9c0,1.5,1.2,2.7,2.7,2.7h6.4
		c1.5,0,2.7-1.2,2.7-2.7v-6.9C171.2,286.7,170,285.5,168.5,285.5z"/>
	<path id="XMLID_381_" class="st0" d="M42,215.1h-6.4c-1.5,0-2.7,1.2-2.7,2.7v6.9c0,1.5,1.2,2.7,2.7,2.7H42c1.5,0,2.7-1.2,2.7-2.7
		v-6.9C44.7,216.3,43.5,215.1,42,215.1z"/>
	<path id="XMLID_320_" class="st0" d="M139.3,249.5h-6.4c-1.5,0-2.7,1.2-2.7,2.7v8.6c0,1.5,1.2,2.7,2.7,2.7h6.4
		c1.5,0,2.7-1.2,2.7-2.7v-8.6C142,250.7,140.8,249.5,139.3,249.5z"/>
	<path id="XMLID_318_" class="st0" d="M177.4,204.3v-21.7v-33.4v-33.4V82.4h-26.4h-26.4H98H71.6v33.4v33.4v33.4v21.7h0v22.1
		c0,1.5,1.2,2.7,2.7,2.7h6.4c1.5,0,2.7,1.2,2.7,2.7v14.4c0,1.5,1.2,2.7,2.7,2.7h6.4c1.5,0,2.7-1.2,2.7-2.7s1.2-2.7,2.7-2.7h6.4
		c1.5,0,2.7-1.2,2.7-2.7v-15.1c0-1.5,1.2-2.7,2.7-2.7h6.4c1.5,0,2.7,1.2,2.7,2.7v0.7c0,1.5,1.2,2.7,2.7,2.7h6.4
		c1.5,0,2.7,1.2,2.7,2.7v5.1c0,1.5,1.2,2.7,2.7,2.7h6.4c1.5,0,2.7-1.2,2.7-2.7v-5.1c0-1.5,1.2-2.7,2.7-2.7h6.4
		c1.5,0,2.7,1.2,2.7,2.7v17.2c0,1.5,1.2,2.7,2.7,2.7h6.4c1.5,0,2.7-1.2,2.7-2.7v-25.5c0-1.5,1.2-2.7,2.7-2.7h6.5
		c1.5,0,2.7-1.2,2.7-2.7V212L177.4,204.3L177.4,204.3z"/>
</g>
</svg>
