<!--?xml version="1.0" encoding="utf-8"?-->
<!-- Generator: Adobe Illustrator 19.0.0, SVG Export Plug-In . SVG Version: 6.00 Build 0)  -->
<svg version="1.1" id="レイヤー_1" xmlns="http://www.w3.org/2000/svg" xmlns:xlink="http://www.w3.org/1999/xlink" x="0px" y="0px" viewBox="0 0 250 300" xml:space="preserve">
<style type="text/css">
	.st0{fill:none;stroke:#FFFFFF;stroke-width:2.4569;stroke-miterlimit:10;}
</style>
<g id="XMLID_317_">
	<path id="XMLID_379_" class="st0 JdFfvdhI_0" d="M150.9,69.8L137.7,69.8L124.5,69.8L111.3,69.8L98.1,69.8L98.1,53.1L98.1,36.5
		98.1,19.8L98.1,3.1L111.3,3.1L124.5,3.1L137.7,3.1L150.9,3.1L150.9,19.8L150.9,36.5L150.9,53.1Z"></path>
	<path id="XMLID_325_" class="st0 JdFfvdhI_1" d="M150.9,69.8h-13.2h-13.2h-13.2H98.1V53.1V36.5V19.8V3.1h13.2c1.2,2.7,2.6,4.8,4,6.5
		c11.2,13.4,32.4,10.6,35.6,10.2c0,5.6,0,11.1,0,16.7v16.7V69.8z"></path>
	<path id="XMLID_323_" class="st0 JdFfvdhI_2" d="M128.1,33.2A3.9,3.9 0,1,1 135.9,33.2A3.9,3.9 0,1,1 128.1,33.2"></path>
	<path id="XMLID_322_" class="st0 JdFfvdhI_3" d="M109.5,33.2A3.9,3.9 0,1,1 117.30000000000001,33.2A3.9,3.9 0,1,1 109.5,33.2"></path>
	<path id="XMLID_321_" class="st0 JdFfvdhI_4" d="M92.3,255.6h-6.4c-1.5,0-2.7,1.2-2.7,2.7v6.9c0,1.5,1.2,2.7,2.7,2.7h6.4
		c1.5,0,2.7-1.2,2.7-2.7v-6.9C95,256.8,93.8,255.6,92.3,255.6z"></path>
	<path id="XMLID_319_" class="st0 JdFfvdhI_5" d="M216.9,185.3h-6.4c-1.5,0-2.7,1.2-2.7,2.7v6.9c0,1.5,1.2,2.7,2.7,2.7h6.4
		c1.5,0,2.7-1.2,2.7-2.7V188C219.6,186.5,218.4,185.3,216.9,185.3z"></path>
	<path id="XMLID_383_" class="st0 JdFfvdhI_6" d="M11.4,249.9H5c-1.5,0-2.7,1.2-2.7,2.7v6.9c0,1.5,1.2,2.7,2.7,2.7h6.4c1.5,0,2.7-1.2,2.7-2.7
		v-6.9C14.1,251.1,12.9,249.9,11.4,249.9z"></path>
	<path id="XMLID_382_" class="st0 JdFfvdhI_7" d="M245,240.3h-6.4c-1.5,0-2.7,1.2-2.7,2.7v6.9c0,1.5,1.2,2.7,2.7,2.7h6.4c1.5,0,2.7-1.2,2.7-2.7
		V243C247.7,241.5,246.5,240.3,245,240.3z"></path>
	<path id="XMLID_384_" class="st0 JdFfvdhI_8" d="M168.5,285.5h-6.4c-1.5,0-2.7,1.2-2.7,2.7v6.9c0,1.5,1.2,2.7,2.7,2.7h6.4
		c1.5,0,2.7-1.2,2.7-2.7v-6.9C171.2,286.7,170,285.5,168.5,285.5z"></path>
	<path id="XMLID_381_" class="st0 JdFfvdhI_9" d="M42,215.1h-6.4c-1.5,0-2.7,1.2-2.7,2.7v6.9c0,1.5,1.2,2.7,2.7,2.7H42c1.5,0,2.7-1.2,2.7-2.7
		v-6.9C44.7,216.3,43.5,215.1,42,215.1z"></path>
	<path id="XMLID_320_" class="st0 JdFfvdhI_10" d="M139.3,248.5h-6.4c-1.5,0-2.7,1.2-2.7,2.7v8.6c0,1.5,1.2,2.7,2.7,2.7h6.4
		c1.5,0,2.7-1.2,2.7-2.7v-8.6C142,249.7,140.8,248.5,139.3,248.5z"></path>
	<path id="XMLID_318_" class="st0 JdFfvdhI_11" d="M177.4,204.3v-21.7v-33.4v-33.4V82.4h-26.4h-26.4H98H71.6v33.4v33.4v33.4v21.7h0v22.1
		c0,1.5,1.2,2.7,2.7,2.7h6.4c1.5,0,2.7,1.2,2.7,2.7v14.4c0,1.5,1.2,2.7,2.7,2.7h6.4c1.5,0,2.7-1.2,2.7-2.7s1.2-2.7,2.7-2.7h6.4
		c1.5,0,2.7-1.2,2.7-2.7v-15.1c0-1.5,1.2-2.7,2.7-2.7h6.4c1.5,0,2.7,1.2,2.7,2.7v0.7c0,1.5,1.2,2.7,2.7,2.7h6.4
		c1.5,0,2.7,1.2,2.7,2.7v5.1c0,1.5,1.2,2.7,2.7,2.7h6.4c1.5,0,2.7-1.2,2.7-2.7v-5.1c0-1.5,1.2-2.7,2.7-2.7h6.4
		c1.5,0,2.7,1.2,2.7,2.7v17.2c0,1.5,1.2,2.7,2.7,2.7h6.4c1.5,0,2.7-1.2,2.7-2.7v-25.5c0-1.5,1.2-2.7,2.7-2.7h6.5
		c1.5,0,2.7-1.2,2.7-2.7V212L177.4,204.3L177.4,204.3z"></path>
</g>
<style>.JdFfvdhI_0{stroke-dasharray:239 241;stroke-dashoffset:240;animation:JdFfvdhI_draw_0 6200ms ease 0ms infinite,JdFfvdhI_fade 6200ms linear 0ms infinite;}.JdFfvdhI_1{stroke-dasharray:229 231;stroke-dashoffset:230;animation:JdFfvdhI_draw_1 6200ms ease 0ms infinite,JdFfvdhI_fade 6200ms linear 0ms infinite;}.JdFfvdhI_2{stroke-dasharray:25 27;stroke-dashoffset:26;animation:JdFfvdhI_draw_2 6200ms ease 0ms infinite,JdFfvdhI_fade 6200ms linear 0ms infinite;}.JdFfvdhI_3{stroke-dasharray:25 27;stroke-dashoffset:26;animation:JdFfvdhI_draw_3 6200ms ease 0ms infinite,JdFfvdhI_fade 6200ms linear 0ms infinite;}.JdFfvdhI_4{stroke-dasharray:44 46;stroke-dashoffset:45;animation:JdFfvdhI_draw_4 6200ms ease 0ms infinite,JdFfvdhI_fade 6200ms linear 0ms infinite;}.JdFfvdhI_5{stroke-dasharray:44 46;stroke-dashoffset:45;animation:JdFfvdhI_draw_5 6200ms ease 0ms infinite,JdFfvdhI_fade 6200ms linear 0ms infinite;}.JdFfvdhI_6{stroke-dasharray:44 46;stroke-dashoffset:45;animation:JdFfvdhI_draw_6 6200ms ease 0ms infinite,JdFfvdhI_fade 6200ms linear 0ms infinite;}.JdFfvdhI_7{stroke-dasharray:44 46;stroke-dashoffset:45;animation:JdFfvdhI_draw_7 6200ms ease 0ms infinite,JdFfvdhI_fade 6200ms linear 0ms infinite;}.JdFfvdhI_8{stroke-dasharray:44 46;stroke-dashoffset:45;animation:JdFfvdhI_draw_8 6200ms ease 0ms infinite,JdFfvdhI_fade 6200ms linear 0ms infinite;}.JdFfvdhI_9{stroke-dasharray:44 46;stroke-dashoffset:45;animation:JdFfvdhI_draw_9 6200ms ease 0ms infinite,JdFfvdhI_fade 6200ms linear 0ms infinite;}.JdFfvdhI_10{stroke-dasharray:47 49;stroke-dashoffset:48;animation:JdFfvdhI_draw_10 6200ms ease 0ms infinite,JdFfvdhI_fade 6200ms linear 0ms infinite;}.JdFfvdhI_11{stroke-dasharray:603 605;stroke-dashoffset:604;animation:JdFfvdhI_draw_11 6200ms ease 0ms infinite,JdFfvdhI_fade 6200ms linear 0ms infinite;}@keyframes JdFfvdhI_draw{100%{stroke-dashoffset:0;}}@keyframes JdFfvdhI_fade{0%{stroke-opacity:1;}93.54838709677419%{stroke-opacity:1;}100%{stroke-opacity:0;}}@keyframes JdFfvdhI_draw_0{12.903225806451612%{stroke-dashoffset: 240}18.26467697256724%{ stroke-dashoffset: 0;}100%{ stroke-dashoffset: 0;}}@keyframes JdFfvdhI_draw_1{18.26467697256724%{stroke-dashoffset: 230}23.402734340094717%{ stroke-dashoffset: 0;}100%{ stroke-dashoffset: 0;}}@keyframes JdFfvdhI_draw_2{23.402734340094717%{stroke-dashoffset: 26}23.983558216423916%{ stroke-dashoffset: 0;}100%{ stroke-dashoffset: 0;}}@keyframes JdFfvdhI_draw_3{23.983558216423912%{stroke-dashoffset: 26}24.564382092753107%{ stroke-dashoffset: 0;}100%{ stroke-dashoffset: 0;}}@keyframes JdFfvdhI_draw_4{24.564382092753107%{stroke-dashoffset: 45}25.569654186399788%{ stroke-dashoffset: 0;}100%{ stroke-dashoffset: 0;}}@keyframes JdFfvdhI_draw_5{25.569654186399788%{stroke-dashoffset: 45}26.57492628004647%{ stroke-dashoffset: 0;}100%{ stroke-dashoffset: 0;}}@keyframes JdFfvdhI_draw_6{26.574926280046462%{stroke-dashoffset: 45}27.580198373693143%{ stroke-dashoffset: 0;}100%{ stroke-dashoffset: 0;}}@keyframes JdFfvdhI_draw_7{27.580198373693143%{stroke-dashoffset: 45}28.585470467339828%{ stroke-dashoffset: 0;}100%{ stroke-dashoffset: 0;}}@keyframes JdFfvdhI_draw_8{28.585470467339828%{stroke-dashoffset: 45}29.59074256098651%{ stroke-dashoffset: 0;}100%{ stroke-dashoffset: 0;}}@keyframes JdFfvdhI_draw_9{29.59074256098651%{stroke-dashoffset: 45}30.59601465463319%{ stroke-dashoffset: 0;}100%{ stroke-dashoffset: 0;}}@keyframes JdFfvdhI_draw_10{30.596014654633187%{stroke-dashoffset: 48}31.66830488785631%{ stroke-dashoffset: 0;}100%{ stroke-dashoffset: 0;}}@keyframes JdFfvdhI_draw_11{31.668304887856312%{stroke-dashoffset: 604}45.16129032258064%{ stroke-dashoffset: 0;}100%{ stroke-dashoffset: 0;}}</style></svg>
